<?xml version="1.0" encoding="UTF-8"?>
<svg xmlns="http://www.w3.org/2000/svg" xmlns:xlink="http://www.w3.org/1999/xlink" viewBox="0 0 500 500">
  <defs>
    <style>
      .cls-1 {
        fill: url(#linear-gradient);
      }

      .cls-1, .cls-2, .cls-3, .cls-4 {
        fill-rule: evenodd;
      }

      .cls-5, .cls-6 {
        fill: #fff;
      }

      .cls-7 {
        letter-spacing: -.05em;
      }

      .cls-6 {
        font-family: Tachyon, Tachyon;
        font-size: 48px;
      }

      .cls-2 {
        fill: url(#linear-gradient-3);
      }

      .cls-3 {
        fill: url(#linear-gradient-2);
      }

      .cls-4 {
        fill: url(#linear-gradient-4);
      }

      .cls-8 {
        letter-spacing: 0em;
      }
    </style>
    <linearGradient id="linear-gradient" x1="243.51" y1="262.48" x2="306.24" y2="262.48" gradientUnits="userSpaceOnUse">
      <stop offset="0" stop-color="#175494"/>
      <stop offset="1" stop-color="#3ebee5"/>
    </linearGradient>
    <linearGradient id="linear-gradient-2" x1="253.97" y1="270.89" x2="256.01" y2="91.16" xlink:href="#linear-gradient"/>
    <linearGradient id="linear-gradient-3" x1="254.81" y1="166.01" x2="246.89" y2="604.25" xlink:href="#linear-gradient"/>
    <linearGradient id="linear-gradient-4" x1="255.34" y1="-16.99" x2="254.35" y2="446.62" xlink:href="#linear-gradient"/>
  </defs>
  <g id="Layer_1" data-name="Layer 1">
    <polygon class="cls-1" points="243.51 251.53 255.24 255.79 266.97 251.53 255.24 273.42 243.51 251.53"/>
    <path class="cls-3" d="m254.97,229.66c-25.13-15.54-50.27-31.08-75.4-46.62l40.7,13.48h69.41l40.7-13.48c-25.13,15.54-50.27,31.08-75.4,46.62Z"/>
    <path class="cls-2" d="m35.81,157.07c2.82,8.11,5.73,15.81,8.77,23.11,13.73,32.98,73,37.31,103.6,46.61-21.04.34-66.58-5.83-87.62-14.22,8.92,15.05,19.05,32.45,37.02,36.23,22.29,4.69,57.21-1.17,64.41-7.62-9.24,14.41-47.95,17.5-60.1,17.68,33.13,23.68,48.5,20.43,79.2.95-10.15,10.7-12.84,13.46-25.43,21.15,26.29,8.07,55.35,14.96,73.92,17.88-4.2,6.83-8.39,13.66-12.59,20.5,4.42,3.67,8.83,7.34,13.25,11.02,4.44-8.2,8.87-16.4,13.31-24.6-2.42,9.87-4.84,19.75-7.27,29.62l18.66,15.52,18.66-15.52c-2.42-9.87-4.84-19.75-7.27-29.62,4.44,8.2,8.87,16.4,13.31,24.6,4.42-3.67,8.83-7.34,13.25-11.02-4.2-6.83-8.39-13.66-12.59-20.5,18.57-2.92,47.64-9.81,73.92-17.88-12.58-7.69-15.28-10.46-25.43-21.15,30.71,19.49,46.08,22.74,79.21-.95-12.15-.18-50.86-3.28-60.1-17.68,7.2,6.45,42.11,12.31,64.41,7.62,17.97-3.78,28.1-21.17,37.02-36.23-21.04,8.4-66.58,14.57-87.62,14.22,30.6-9.3,89.87-13.63,103.6-46.61,3.04-7.3,5.95-14.99,8.77-23.1-36.12,36.29-84.19,47.64-132.1,59.87-14,34.41-25.97,48.64-58.93,64.13h0c-8.81,4.96-18.45,7.66-28.12,8.09-9.67-.43-19.31-3.13-28.12-8.09h0c-32.95-15.49-44.93-29.72-58.93-64.13-47.91-12.23-95.98-23.59-132.1-59.88Z"/>
    <path class="cls-4" d="m342.02,216.95c-14,34.41-25.97,48.64-58.93,64.13h0c14.41-8.11,26.61-22.27,33.15-42.46,3.59-11.08,5.48-23.97,5.08-38.68,27.63-8.55,74.23-19.33,116.65-31.57,12.62-3.64,24.87-7.41,36.14-11.29h0c-36.12,36.29-84.19,47.65-132.1,59.88Zm-153.41-17.02c-27.53-8.52-73.89-19.26-116.19-31.44-12.78-3.68-25.2-7.5-36.6-11.42,36.12,36.29,84.19,47.65,132.1,59.88,14,34.41,25.97,48.64,58.93,64.13h0c-14.55-8.19-26.85-22.54-33.34-43.04-3.47-10.95-5.28-23.65-4.89-38.1Z"/>
  </g>
  <g id="Layer_5" data-name="Layer 5">
    <g>
      <path class="cls-5" d="m204.86,240.94c.73,2.54,2.13,4.67,3.88,6.31,1.75,1.63,3.83,2.8,6.01,3.56,2.17.79,4.48,1.14,6.73,1.1,2.24-.04,4.44-.39,6.46-1.13,2.07-.79,3.6-1.79,5.95-3.32,2.16-1.42,4.36-2.78,6.55-4.16,2.19-1.38,4.41-2.7,6.61-4.06l6.67-3.96,6.73-3.86,6.79-3.75c2.28-1.22,4.55-2.46,6.85-3.64,1.3-.67,2.76-1.34,4.22-1.77,1.47-.43,2.97-.75,4.47-.91,6.01-.62,12.07,1.08,16.63,4.69,2.26,1.83,4.13,4.16,5.18,6.82,1.06,2.65,1.17,5.56.47,8.09-.28-2.63-1.23-4.99-2.67-6.88-1.46-1.88-3.34-3.31-5.4-4.32-4.14-2-8.9-2.43-13.09-1.41-2.12.52-4.01,1.37-5.82,2.56-2.16,1.42-4.37,2.78-6.55,4.16l-6.61,4.05-6.68,3.95-6.73,3.85c-2.27,1.25-4.51,2.53-6.79,3.75-2.28,1.22-4.55,2.46-6.86,3.64-2.08,1.13-5.11,2.64-8.03,3.28-2.97.65-6,.68-8.9.21-.72-.15-1.45-.23-2.15-.45-.7-.21-1.4-.42-2.09-.64l-2-.87c-.66-.29-1.27-.69-1.9-1.05-2.44-1.53-4.58-3.54-6.04-5.97-1.48-2.41-2.16-5.23-1.92-7.85Z"/>
      <path class="cls-5" d="m305.07,240.93c.25,2.62-.44,5.44-1.91,7.85-1.45,2.43-3.59,4.45-6.04,5.97-.62.35-1.24.76-1.9,1.05l-2,.87c-.69.23-1.39.43-2.09.64-.7.22-1.43.3-2.15.45-2.9.47-5.93.44-8.9-.21-2.92-.63-5.95-2.15-8.03-3.28-2.3-1.18-4.58-2.42-6.86-3.64-2.28-1.22-4.53-2.5-6.79-3.75l-6.73-3.85-6.68-3.95-6.61-4.06c-2.19-1.38-4.39-2.74-6.55-4.16-1.81-1.19-3.7-2.03-5.82-2.56-4.19-1.02-8.96-.59-13.09,1.41-2.05,1.01-3.94,2.44-5.4,4.32-1.43,1.89-2.39,4.25-2.67,6.88-.7-2.53-.6-5.43.47-8.09,1.05-2.66,2.92-4.99,5.18-6.82,4.57-3.62,10.62-5.31,16.64-4.69,1.5.16,3,.48,4.47.91,1.46.43,2.92,1.11,4.22,1.77,2.31,1.18,4.57,2.42,6.85,3.64l6.79,3.75,6.73,3.86,6.67,3.96c2.2,1.35,4.43,2.68,6.61,4.06,2.19,1.38,4.39,2.74,6.55,4.16,2.35,1.53,3.88,2.53,5.95,3.32,2.02.74,4.22,1.09,6.46,1.13,2.25.04,4.55-.31,6.73-1.1,2.18-.76,4.26-1.93,6.01-3.56,1.74-1.63,3.14-3.76,3.88-6.31Z"/>
    </g>
  </g>
  <g id="Text_Layer" data-name="Text Layer">
    <text class="cls-6" transform="translate(64.1 158.83)"><tspan x="0" y="0">Infinite S</tspan><tspan class="cls-7" x="304.89" y="0">k</tspan><tspan class="cls-8" x="341.71" y="0">y</tspan></text>
  </g>
</svg>